<!-- Generated by IcoMoon.io -->
<svg version="1.1" xmlns="http://www.w3.org/2000/svg" width="30" height="32" viewBox="0 0 30 32">
<title>search_icon</title>
<path d="M29.789 28.675l-5.799-5.799c2.162-2.424 3.506-5.635 3.506-9.14 0-7.568-6.159-13.727-13.727-13.727s-13.727 6.159-13.727 13.727c0 7.568 6.159 13.727 13.727 13.727 2.686 0 5.176-0.786 7.273-2.097l6.028 6.028c0.36 0.36 0.852 0.557 1.343 0.557s0.983-0.197 1.343-0.557c0.786-0.753 0.786-1.966 0.033-2.719l-0 0zM3.875 13.736c0-5.438 4.423-9.894 9.894-9.894s9.861 4.455 9.861 9.894c0 5.438-4.423 9.894-9.861 9.894s-9.894-4.423-9.894-9.894z"></path>
</svg>
