<svg width="519" height="547" xmlns="http://www.w3.org/2000/svg"><path d="m509.2 490.16-99.121-99.121c36.961-41.441 59.922-96.32 59.922-156.24 0-129.36-105.28-234.64-234.64-234.64C106.001.159.721 105.439.721 234.799c0 129.36 105.28 234.64 234.64 234.64 45.922 0 88.48-13.441 124.32-35.84l103.04 103.04c6.16 6.16 14.559 9.52 22.961 9.52 8.398 0 16.801-3.36 22.961-9.52 13.438-12.879 13.438-33.602.559-46.48l-.002.001ZM66.24 234.8c0-92.961 75.602-169.12 169.12-169.12s168.56 76.16 168.56 169.12c0 92.961-75.602 169.12-168.56 169.12S66.24 328.318 66.24 234.8Z" fill="#000" fill-rule="nonzero"/></svg>